name Run_300 01_newCOP3_v24.mot
datacolumns 19
datarows 134
range 1.39 1.523
DataType=double
version=3
OpenSimVersion=4.3-2021-08-27-4bc7ad9
endheader
time	R_ground_force_vx	R_ground_force_vy	R_ground_force_vz	R_ground_force_px	R_ground_force_py	R_ground_force_pz	L_ground_force_vx	L_ground_force_vy	L_ground_force_vz	L_ground_force_px	L_ground_force_py	L_ground_force_pz	R_ground_torque_x	R_ground_torque_y	R_ground_torque_z	L_ground_torque_x	L_ground_torque_y	L_ground_torque_z
1.39	0	0	0	0	0	0	0	0	0	0	0	0	0	0	0	0	0	0
1.391	0	0	0	0	0	0	0	0	0	0	0	0	0	0	0	0	0	0
1.392	0	0	0	0	0	0	0	0	0	0	0	0	0	0	0	0	0	0
1.393	0	0	0	0	0	0	0	0	0	0	0	0	0	0	0	0	0	0
1.394	0	0	0	0	0	0	0	0	0	0	0	0	0	0	0	0	0	0
1.395	0	0	0	0	0	0	0	0	0	0	0	0	0	0	0	0	0	0
1.396	0	0	0	0	0	0	0	0	0	0	0	0	0	0	0	0	0	0
1.397	0	0	0	0	0	0	0	0	0	0	0	0	0	0	0	0	0	0
1.398	0	0	0	0	0	0	0	0	0	0	0	0	0	0	0	0	0	0
1.399	0	0	0	0	0	0	0	0	0	0	0	0	0	0	0	0	0	0
1.4	0	0	0	0	0	0	0	0	0	0	0	0	0	0	0	0	0	0
1.401	0	0	0	0	0	0	0	0	0	0	0	0	0	0	0	0	0	0
1.402	0	0	0	0	0	0	0	0	0	0	0	0	0	0	0	0	0	0
1.403	0	0	0	0	0	0	0	0	0	0	0	0	0	0	0	0	0	0
1.404	0	0	0	0	0	0	0	0	0	0	0	0	0	0	0	0	0	0
1.405	0	0	0	0	0	0	0	0	0	0	0	0	0	0	0	0	0	0
1.406	0	0	0	0	0	0	0	0	0	0	0	0	0	0	0	0	0	0
1.407	0	0	0	0	0	0	0	0	0	0	0	0	0	0	0	0	0	0
1.408	0	0	0	0	0	0	0	0	0	0	0	0	0	0	0	0	0	0
1.409	0	0	0	0	0	0	0	0	0	0	0	0	0	0	0	0	0	0
1.41	0	0	0	0	0	0	0	0	0	0	0	0	0	0	0	0	0	0
1.411	0	0	0	0	0	0	0	0	0	0	0	0	0	0	0	0	0	0
1.412	0	0	0	0	0	0	0	0	0	0	0	0	0	0	0	0	0	0
1.413	0	0	0	0	0	0	0	0	0	0	0	0	0	0	0	0	0	0
1.414	0	0	0	0	0	0	0	0	0	0	0	0	0	0	0	0	0	0
1.415	0	0	0	0	0	0	0	0	0	0	0	0	0	0	0	0	0	0
1.416	0	0	0	0	0	0	0	0	0	0	0	0	0	0	0	0	0	0
1.417	0	0	0	0	0	0	0	0	0	0	0	0	0	0	0	0	0	0
1.418	0	0	0	0	0	0	0	0	0	0	0	0	0	0	0	0	0	0
1.419	0	0	0	0	0	0	0	0	0	0	0	0	0	0	0	0	0	0
1.42	0	0	0	0	0	0	0	0	0	0	0	0	0	0	0	0	0	0
1.421	0	0	0	0	0	0	0	0	0	0	0	0	0	0	0	0	0	0
1.422	0	0	0	0	0	0	0	0	0	0	0	0	0	0	0	0	0	0
1.423	0	0	0	0	0	0	0	0	0	0	0	0	0	0	0	0	0	0
1.424	0	0	0	0	0	0	0	0	0	0	0	0	0	0	0	0	0	0
1.425	0	0	0	0	0	0	0	0	0	0	0	0	0	0	0	0	0	0
1.426	0	0	0	0	0	0	0	0	0	0	0	0	0	0	0	0	0	0
1.427	0	0	0	0	0	0	0	0	0	0	0	0	0	0	0	0	0	0
1.428	0	0	0	0	0	0	0	0	0	0	0	0	0	0	0	0	0	0
1.429	0	0	0	0	0	0	0	0	0	0	0	0	0	0	0	0	0	0
1.43	0	0	0	0	0	0	0	0	0	0	0	0	0	0	0	0	0	0
1.431	0	0	0	0	0	0	0	0	0	0	0	0	0	0	0	0	0	0
1.432	0	0	0	0	0	0	0	0	0	0	0	0	0	0	0	0	0	0
1.433	0	0	0	0	0	0	0	0	0	0	0	0	0	0	0	0	0	0
1.434	0	0	0	0	0	0	0	0	0	0	0	0	0	0	0	0	0	0
1.435	0	0	0	0	0	0	0	0	0	0	0	0	0	0	0	0	0	0
1.436	0	0	0	0	0	0	0	0	0	0	0	0	0	0	0	0	0	0
1.437	0	0	0	0	0	0	0	0	0	0	0	0	0	0	0	0	0	0
1.438	0	0	0	0	0	0	-5.908541	11.059491	0.311135	0.789156	0	-0.341727	0	0	0	-0	3.049709	-0
1.439	0	0	0	0	0	0	-6.821623	12.633448	0.293497	0.798033	0	-0.355377	0	0	0	-0	3.031961	-0
1.44	0	0	0	0	0	0	-7.877991	14.483271	0.289851	0.805915	0	-0.366983	0	0	0	-0	3.005043	-0
1.441	0	0	0	0	0	0	-9.093775000000001	16.647816	0.30387	0.812866	0	-0.376688	0	0	0	-0	2.968782	-0
1.442	0	0	0	0	0	0	-10.485754	19.169304	0.339619	0.818975	0	-0.384671	0	0	0	-0	2.923037	-0
1.443	0	0	0	0	0	0	-12.071176	22.093235	0.401537	0.824339	0	-0.391134	0	0	0	-0	2.867703	-0
1.444	0	0	0	0	0	0	-13.867514	25.468206	0.494417	0.829062	0	-0.396281	0	0	0	-0	2.802714	-0
1.445	0	0	0	0	0	0	-15.892193	29.345652	0.623373	0.83324	0	-0.400306	0	0	0	-0	2.728041	-0
1.446	0	0	0	0	0	0	-18.162251	33.779457	0.793798	0.836963	0	-0.403387	0	0	0	-0	2.643697	-0
1.447	0	0	0	0	0	0	-20.693949	38.825481	1.011312	0.840309	0	-0.405682	0	0	0	-0	2.549736	-0
1.448	0	0	0	0	0	0	-23.502354	44.540928	1.281705	0.843345	0	-0.407328	0	0	0	-0	2.446257	-0
1.449	0	0	0	0	0	0	-26.600847	50.983635	1.610858	0.846125	0	-0.408442	0	0	0	-0	2.333402	-0
1.45	0	0	0	0	0	0	-30.000629	58.211216	2.004671	0.848696	0	-0.409119	0	0	0	-0	2.211357	-0
1.451	0	0	0	0	0	0	-33.710194	66.280098	2.468959	0.851091	0	-0.409441	0	0	0	-0	2.080357	-0
1.452	0	0	0	0	0	0	-37.734764	75.244461	3.009359	0.853339	0	-0.409473	0	0	0	-0	1.94068	-0
1.453	0	0	0	0	0	0	-42.075794	85.155098	3.631211	0.855459	0	-0.409268	0	0	0	-0	1.792651	-0
1.454	0	0	0	0	0	0	-46.730427	96.05825	4.33944	0.857465	0	-0.40887	0	0	0	-0	1.636642	-0
1.455	0	0	0	0	0	0	-51.69104	107.994423	5.138429	0.859367	0	-0.408312	0	0	0	-0	1.473068	-0
1.456	0	0	0	0	0	0	-56.944828	120.997208	6.031884	0.86117	0	-0.407623	0	0	0	-0	1.30239	-0
1.457	0	0	0	0	0	0	-62.473507	135.092224	7.022699	0.8628749999999999	0	-0.406825	0	0	0	-0	1.125113	-0
1.458	0	0	0	0	0	0	-68.25305899999999	150.296204	8.112819	0.864482	0	-0.405937	0	0	0	-0	0.941781	-0
1.459	0	0	0	0	0	0	-74.253654	166.616211	9.303105	0.865986	0	-0.404975	0	0	0	-0	0.752981	-0
1.46	0	0	0	0	0	0	-80.439713	184.049118	10.59321	0.867383	0	-0.40395	0	0	0	-0	0.5593360000000001	-0
1.461	0	0	0	0	0	0	-86.77005	202.581421	11.981456	0.868667	0	-0.402873	0	0	0	-0	0.361505	-0
1.462	0	0	0	0	0	0	-93.198303	222.189255	13.464731	0.869827	0	-0.401754	0	0	0	-0	0.160179	-0
1.463	0	0	0	0	0	0	-99.673393	242.838882	15.038402	0.870856	0	-0.4006	0	0	0	0	-0.043922	0
1.464	0	0	0	0	0	0	-106.140251	264.487396	16.696249	0.871742	0	-0.39942	0	0	0	0	-0.250051	0
1.465	0	0	0	0	0	0	-112.540695	287.083771	18.430426	0.872475	0	-0.39822	0	0	0	0	-0.457441	0
1.466	0	0	0	0	0	0	-118.814362	310.570374	20.231445	0.873043	0	-0.397006	0	0	0	0	-0.665305	0
1.467	0	0	0	0	0	0	-124.899887	334.884369	22.088203	0.873432	0	-0.395785	0	0	0	0	-0.872843	0
1.468	0	0	0	0	0	0	-130.736115	359.959747	23.988029	0.873632	0	-0.394563	0	0	0	0	-1.079246	0
1.469	0	0	0	0	0	0	-136.263382	385.729034	25.916784	0.873629	0	-0.393345	0	0	0	0	-1.283701	0
1.47	0	0	0	0	0	0	-141.42482	412.125244	27.85898	0.873411	0	-0.392137	0	0	0	0	-1.485395	0
1.471	0	0	0	0	0	0	-146.167664	439.083618	29.797949	0.872967	0	-0.390945	0	0	0	0	-1.683522	0
1.472	0	0	0	0	0	0	-150.444534	466.543304	31.716045	0.872285	0	-0.389773	0	0	0	0	-1.877284	0
1.473	0	0	0	0	0	0	-154.214554	494.448547	33.594872	0.871357	0	-0.388627	0	0	0	0	-2.065901	0
1.474	0	0	0	0	0	0	-157.444351	522.749878	35.41555	0.870174	0	-0.387511	0	0	0	0	-2.248615	0
1.475	0	0	0	0	0	0	-160.108917	551.404602	37.158997	0.8687319999999999	0	-0.38643	0	0	0	0	-2.42469	0
1.476	0	0	0	0	0	0	-162.192276	580.377014	38.806248	0.867026	0	-0.385388	0	0	0	0	-2.593426	0
1.477	0	0	0	0	0	0	-163.687805	609.638367	40.338753	0.865057	0	-0.384387	0	0	0	0	-2.754155	0
1.478	0	0	0	0	0	0	-164.598434	639.16626	41.738728	0.862829	0	-0.383431	0	0	0	0	-2.906254	0
1.479	0	0	0	0	0	0	-164.936661	668.94397	42.989452	0.860347	0	-0.382522	0	0	0	0	-3.049141	0
1.48	0	0	0	0	0	0	-164.724075	698.959412	44.075588	0.857622	0	-0.381661	0	0	0	0	-3.182285	0
1.481	0	0	0	0	0	0	-163.991028	729.203796	44.983486	0.854668	0	-0.380849	0	0	0	0	-3.305209	0
1.482	0	0	0	0	0	0	-162.775787	759.670715	45.701424	0.851503	0	-0.380086	0	0	0	0	-3.417491	0
1.483	0	0	0	0	0	0	-161.123779	790.354736	46.219872	0.848145	0	-0.379372	0	0	0	0	-3.51877	0
1.484	0	0	0	0	0	0	-159.086548	821.250488	46.531651	0.84462	0	-0.378704	0	0	0	0	-3.608745	0
1.485	0	0	0	0	0	0	-156.720703	852.35144	46.632103	0.840952	0	-0.37808	0	0	0	0	-3.687181	0
1.486	0	0	0	0	0	0	-154.086792	883.649536	46.519169	0.8371690000000001	0	-0.377497	0	0	0	0	-3.75391	0
1.487	0	0	0	0	0	0	-151.248169	915.134155	46.193443	0.833299	0	-0.376951	0	0	0	0	-3.808828	0
1.488	0	0	0	0	0	0	-148.269745	946.792236	45.658146	0.829371	0	-0.376437	0	0	0	0	-3.851902	0
1.489	0	0	0	0	0	0	-145.216965	978.607727	44.919052	0.825413	0	-0.375951	0	0	0	0	-3.883164	0
1.49	0	0	0	0	0	0	-142.154587	1010.561829	43.984379	0.821454	0	-0.375487	0	0	0	0	-3.902715	0
1.491	0	0	0	0	0	0	-139.14566	1042.633057	42.86459	0.817519	0	-0.37504	0	0	0	0	-3.910724	0
1.492	0	0	0	0	0	0	-136.250519	1074.797119	41.572189	0.813632	0	-0.374605	0	0	0	0	-3.907423	0
1.493	0	0	0	0	0	0	-133.525818	1107.027832	40.121445	0.809815	0	-0.374175	0	0	0	0	-3.893109	0
1.494	0	0	0	0	0	0	-131.023621	1139.296509	38.528091	0.806086	0	-0.373746	0	0	0	0	-3.868139	0
1.495	0	0	0	0	0	0	-128.790665	1171.572632	36.809013	0.802463	0	-0.373312	0	0	0	0	-3.832932	0
1.496	0	0	0	0	0	0	-126.867607	1203.824219	34.981888	0.798956	0	-0.372871	0	0	0	0	-3.78796	0
1.497	0	0	0	0	0	0	-125.288345	1236.01709	33.06485	0.795577	0	-0.372417	0	0	0	0	-3.733749	0
1.498	0	0	0	0	0	0	-124.079567	1268.115723	31.076145	0.792331	0	-0.37195	0	0	0	0	-3.670874	0
1.499	0	0	0	0	0	0	-123.260262	1300.08252	29.033773	0.789221	0	-0.371465	0	0	0	0	-3.599954	0
1.5	0	0	0	0	0	0	-122.841415	1331.878296	26.955194	0.786249	0	-0.370963	0	0	0	0	-3.521652	0
1.501	0	0	0	0	0	0	-122.825829	1363.461792	24.857023	0.783411	0	-0.370444	0	0	0	0	-3.436667	0
1.502	0	0	0	0	0	0	-123.208061	1394.789429	22.754778	0.780704	0	-0.369907	0	0	0	0	-3.34573	0
1.503	0	0	0	0	0	0	-123.974518	1425.815674	20.662674	0.77812	0	-0.369355	0	0	0	0	-3.249602	0
1.504	0	0	0	0	0	0	-125.103729	1456.492798	18.593451	0.775652	0	-0.36879	0	0	0	0	-3.149067	0
1.505	0	0	0	0	0	0	-126.56678	1486.770874	16.558256	0.773288	0	-0.368215	0	0	0	0	-3.044932	0
1.506	0	0	0	0	0	0	-128.327881	1516.598389	14.566588	0.771019	0	-0.367633	0	0	0	0	-2.938016	0
1.507	0	0	0	0	0	0	-130.345245	1545.921997	12.626275	0.768832	0	-0.367049	0	0	0	0	-2.829151	0
1.508	0	0	0	0	0	0	-132.571915	1574.687622	10.743518	0.766715	0	-0.366466	0	0	0	0	-2.719176	0
1.509	0	0	0	0	0	0	-134.957016	1602.840698	8.922976	0.764655	0	-0.36589	0	0	0	0	-2.608931	0
1.51	0	0	0	0	0	0	-137.446838	1630.326904	7.167903	0.76264	0	-0.365325	0	0	0	0	-2.499257	0
1.511	0	0	0	0	0	0	-139.986313	1657.093262	5.48031	0.760659	0	-0.364775	0	0	0	0	-2.390987	0
1.512	0	0	0	0	0	0	-142.520294	1683.088501	3.861174	0.758698	0	-0.364246	0	0	0	0	-2.284948	0
1.513	0	0	0	0	0	0	-144.994995	1708.264648	2.310665	0.7567469999999999	0	-0.363741	0	0	0	0	-2.18195	0
1.514	0	0	0	0	0	0	-147.359283	1732.577271	0.828386	0.7547970000000001	0	-0.363265	0	0	0	0	-2.08279	0
1.515	0	0	0	0	0	0	-149.565994	1755.98645	-0.5863660000000001	0.752838	0	-0.362821	0	0	0	0	-1.988241	0
1.516	0	0	0	0	0	0	-151.572922	1778.458008	-1.934354	0.7508629999999999	0	-0.362412	0	0	0	0	-1.899054	0
1.517	0	0	0	0	0	0	-153.343857	1799.963257	-3.216153	0.748865	0	-0.362042	0	0	0	0	-1.815954	0
1.518	0	0	0	0	0	0	-154.849121	1820.480103	-4.43192	0.7468399999999999	0	-0.361712	0	0	0	0	-1.739633	0
1.519	0	0	0	0	0	0	-156.066147	1839.993042	-5.581197	0.744783	0	-0.361423	0	0	0	0	-1.670752	0
1.52	0	0	0	0	0	0	-156.979538	1858.493774	-6.662734	0.742693	0	-0.361178	0	0	0	0	-1.609932	0
1.521	0	0	0	0	0	0	-157.581116	1875.980347	-7.674354	0.740569	0	-0.360976	0	0	0	0	-1.557759	0
1.522	0	0	0	0	0	0	-157.869476	1892.457764	-8.612864	0.73841	0	-0.360819	0	0	0	0	-1.514773	0
1.523	0	0	0	0	0	0	-157.849609	1907.937378	-9.474005	0.736218	0	-0.360704	0	0	0	0	-1.48147	0
